<?xml version="1.0" encoding="UTF-8" standalone="no"?>
<svg
   id="svg"
   width="400"
   height="231.60819729072594"
   viewBox="0, 0, 400,231.60819729072594"
   version="1.1"
   sodipodi:docname="image2vector.svg"
   inkscape:version="1.4.2 (ebf0e940, 2025-05-08)"
   xmlns:inkscape="http://www.inkscape.org/namespaces/inkscape"
   xmlns:sodipodi="http://sodipodi.sourceforge.net/DTD/sodipodi-0.dtd"
   xmlns="http://www.w3.org/2000/svg"
   xmlns:svg="http://www.w3.org/2000/svg">
  <defs
     id="defs1" />
  <sodipodi:namedview
     id="namedview1"
     pagecolor="#ffffff"
     bordercolor="#000000"
     borderopacity="0.25"
     inkscape:showpageshadow="2"
     inkscape:pageopacity="0.0"
     inkscape:pagecheckerboard="0"
     inkscape:deskcolor="#d1d1d1"
     inkscape:zoom="0.68"
     inkscape:cx="199.26471"
     inkscape:cy="115.44118"
     inkscape:window-width="952"
     inkscape:window-height="698"
     inkscape:window-x="0"
     inkscape:window-y="38"
     inkscape:window-maximized="0"
     inkscape:current-layer="svg" />
  <g
     id="svgg"
     transform="matrix(0.83455882,0,0,0.8032827,33.82353,23.510769)">
    <path
       id="path0"
       d="m 218.34,0.217 c -17.945,2.437 -32.774,17.491 -40.914,41.534 -1.888,5.575 -1.152,5.147 -14.001,8.135 l -9.205,2.14 v 1.496 1.497 h 9.656 c 5.311,0 9.656,0.043 9.656,0.095 0,0.053 -0.434,1.631 -0.966,3.508 -3.362,11.878 -5.928,24.065 -10.912,51.833 -7.288,40.609 -11.34,57.501 -18.161,75.721 -6.327,16.898 -16.355,34.295 -21.765,37.759 -4.226,2.706 -9.509,2.111 -11.065,-1.247 -1.646,-3.553 -0.09,-6.618 5.697,-11.219 4.546,-3.615 5.847,-5.965 5.814,-10.496 -0.086,-11.759 -13.776,-17.492 -20.465,-8.571 -4.692,6.257 -5.458,20.289 -1.535,28.093 6.197,12.324 18.913,14.656 32.174,5.899 10.138,-6.694 23.33,-24.866 32.1,-44.217 8.426,-18.591 13.391,-35.516 22.425,-76.446 5.629,-25.505 7.952,-34.998 11.494,-46.961 l 1.09,-3.681 10.796,-0.036 10.796,-0.036 V 53.524 52.03 l -8.51,-2.197 c -11.487,-2.966 -10.76,-2.17 -8.207,-8.979 3.239,-8.64 8.492,-20.105 10.762,-23.487 4.373,-6.516 10.01,-10.831 14.152,-10.833 2.134,-10e-4 4.588,1.273 5.35,2.777 1.926,3.799 0.318,6.915 -6.161,11.939 -4.528,3.511 -5.616,5.398 -5.611,9.733 0.01,9.251 7.823,14.384 16.467,10.82 6.723,-2.772 10.036,-8.713 10.023,-17.975 C 249.293,8.598 235.279,-2.083 218.34,0.217 M 52.657,57.894 c -10.171,0.767 -19.542,6.543 -27.232,16.785 -1.209,1.61 -3.168,4.504 -3.586,5.296 -0.142,0.269 -0.047,0.37 1.154,1.215 1.597,1.124 1.232,1.186 2.976,-0.505 5.198,-5.04 11.692,-10.181 15.803,-12.51 7.083,-4.013 13.79,-2.396 13.801,3.328 0.003,1.446 -0.22,2.325 -7.282,28.681 -3.775,14.093 -12.591,47.006 -19.59,73.14 -7.394,27.608 -12.885,47.863 -13.107,48.344 -0.971,2.109 -1.456,2.364 -9.446,4.949 L 0,228.606 v 1.501 1.501 h 26.12 26.12 v -1.499 -1.5 l -6.356,-2.139 c -6.947,-2.338 -7.047,-2.387 -7.399,-3.561 -0.16,-0.534 0.139,-1.698 7.09,-27.641 3.992,-14.897 7.484,-27.938 7.76,-28.982 0.591,-2.229 0.454,-2.171 2.031,-0.855 7.423,6.193 17.73,9.274 27.298,8.161 31.272,-3.638 58.225,-48.102 52.506,-86.617 -3.512,-23.654 -22.186,-35.157 -40.452,-24.92 -4.745,2.66 -10.162,7.362 -15.76,13.68 l -1.674,1.89 -0.095,-1.056 C 76.183,65.286 65.226,56.945 52.657,57.894 m 173.533,86.809 v 86.905 H 313.095 400 V 144.703 57.798 H 313.095 226.19 v 86.905 m 167.975,0.069 v 81.001 h -81.001 -81 v -81.001 -81 h 81 81.001 v 81 M 96.654,78.648 c 3.494,0.39 7.077,2.127 8.952,4.342 6.551,7.736 8.384,20.278 4.983,34.092 -3.973,16.141 -14.407,30.927 -25.768,36.515 -4.946,2.433 -11.703,4.033 -15.889,3.762 -3.072,-0.198 -11.503,-2.25 -12.285,-2.989 -0.124,-0.117 13.567,-51.382 14.232,-53.293 2.483,-7.13 7.419,-14.533 12.136,-18.201 3.855,-2.999 9.36,-4.705 13.639,-4.228 m 144.015,1.549 0.04,1.42 5.418,1.482 c 10.844,2.967 11.588,3.753 12.161,12.848 0.275,4.355 0.106,98.105 -0.18,100.163 -1.006,7.236 -1.318,7.451 -16.878,11.593 l -0.591,0.158 v 1.453 1.454 h 27.857 27.857 v -1.454 -1.453 l -0.591,-0.157 c -14.682,-3.897 -15.433,-4.331 -16.483,-9.514 -0.613,-3.026 -0.612,-2.955 -0.668,-28.652 l -0.054,-24.627 h 34.61 34.61 l -0.061,24.21 c -0.062,24.523 -0.082,25.505 -0.595,28.448 -0.931,5.338 -1.989,6.15 -11.31,8.683 -2.407,0.654 -4.705,1.283 -5.106,1.398 l -0.729,0.208 v 1.455 1.455 h 27.787 27.788 v -1.448 -1.449 l -0.452,-0.142 c -0.248,-0.078 -2.669,-0.745 -5.379,-1.482 -10.637,-2.892 -11.342,-3.743 -11.811,-14.263 -0.187,-4.175 -0.187,-90.241 -10e-4,-94.415 C 368.391,86.746 368.945,86.124 381,82.86 l 4.551,-1.232 v -1.425 -1.426 h -27.788 -27.787 v 1.426 1.425 l 4.55,1.232 c 7.833,2.121 9.126,2.629 10.51,4.123 2.548,2.752 2.719,4.735 2.722,31.496 l 0.002,17.957 h -34.596 -34.595 v -19.071 c 0,-24.237 0.096,-25.885 1.699,-29.063 1.244,-2.467 2.402,-2.991 12.784,-5.788 l 3.299,-0.888 10e-4,-1.425 0.001,-1.424 h -27.862 -27.862 l 0.04,1.42"
       stroke="none"
       fill="#000000"
       fill-rule="evenodd" />
  </g>
</svg>
