<?xml version="1.0" encoding="UTF-8" standalone="no"?>
<!-- Uploaded to: SVG Repo, www.svgrepo.com, Generator: SVG Repo Mixer Tools -->

<svg
   fill="#000000"
   height="800px"
   width="800px"
   version="1.1"
   id="Icons"
   viewBox="0 0 32 32"
   xml:space="preserve"
   sodipodi:docname="orchestra-logo-dm.svg"
   inkscape:version="1.4.2 (ebf0e940, 2025-05-08)"
   xmlns:inkscape="http://www.inkscape.org/namespaces/inkscape"
   xmlns:sodipodi="http://sodipodi.sourceforge.net/DTD/sodipodi-0.dtd"
   xmlns="http://www.w3.org/2000/svg"
   xmlns:svg="http://www.w3.org/2000/svg"><defs
   id="defs1" /><sodipodi:namedview
   id="namedview1"
   pagecolor="#ffffff"
   bordercolor="#000000"
   borderopacity="0.25"
   inkscape:showpageshadow="2"
   inkscape:pageopacity="0.0"
   inkscape:pagecheckerboard="0"
   inkscape:deskcolor="#d1d1d1"
   inkscape:zoom="0.0325"
   inkscape:cx="400"
   inkscape:cy="384.61538"
   inkscape:window-width="1512"
   inkscape:window-height="916"
   inkscape:window-x="0"
   inkscape:window-y="38"
   inkscape:window-maximized="1"
   inkscape:current-layer="Icons" />
<path
   d="M29.6,9.8c0.4-0.4,0.5-1,0.1-1.4c-0.4-0.4-1-0.5-1.4-0.1c-3.1,2.6-7.6,2.6-10.7,0L16,6.8C12.4,3.7,7.8,2,3,2  C2.4,2,2,2.4,2,3s0.4,1,1,1c2,0,3.9,0.3,5.7,0.9L14,25.2l-1.5,1.7L7,5.7C6.8,5.2,6.3,4.9,5.7,5C5.2,5.2,4.9,5.7,5,6.3L10.7,28H9  c-0.6,0-1,0.4-1,1s0.4,1,1,1h13c0.6,0,1-0.4,1-1s-0.4-1-1-1h-7.8l11.6-13.3c0.4-0.4,0.3-1-0.1-1.4c-0.4-0.4-1-0.3-1.4,0.1l-2.5,2.9  l-1.2-4.4c0.8,0.2,1.7,0.3,2.5,0.3C25.4,12.2,27.7,11.4,29.6,9.8z M15.6,23.4L11,5.9c0.8,0.4,1.5,0.8,2.2,1.3L17,21.6L15.6,23.4z   M18.6,19.8L15.9,9.3l0.5,0.4c0.6,0.5,1.2,0.9,1.9,1.3l1.9,7.1L18.6,19.8z"
   id="path1"
   style="fill:#ffffff" />
</svg>
